<svg xmlns="http://www.w3.org/2000/svg" xmlns:xlink="http://www.w3.org/1999/xlink" viewBox="0 0 127.17 127.17"><defs><style>.cls-1{fill:#fbb040;}.cls-2{fill:#231f20;}.cls-3{fill:url(#New_Gradient_Swatch_4);}.cls-4{fill:url(#New_Gradient_Swatch_4-2);}.cls-5{fill:url(#New_Gradient_Swatch_4-3);}.cls-6{fill:url(#New_Gradient_Swatch_4-4);}.cls-7{fill:url(#New_Gradient_Swatch_4-5);}.cls-8{fill:url(#New_Gradient_Swatch_4-6);}.cls-9{fill:url(#New_Gradient_Swatch_4-7);}.cls-10{fill:url(#New_Gradient_Swatch_4-8);}.cls-11{fill:url(#New_Gradient_Swatch_4-9);}</style><linearGradient id="New_Gradient_Swatch_4" x1="55.17" y1="63.59" x2="73.17" y2="63.59" gradientUnits="userSpaceOnUse"><stop offset="0" stop-color="#231f20"/><stop offset="1" stop-color="#ff595a"/></linearGradient><linearGradient id="New_Gradient_Swatch_4-2" x1="0" y1="63" x2="127.17" y2="63" xlink:href="#New_Gradient_Swatch_4"/><linearGradient id="New_Gradient_Swatch_4-3" x1="34.54" y1="94.42" x2="66.86" y2="62.1" xlink:href="#New_Gradient_Swatch_4"/><linearGradient id="New_Gradient_Swatch_4-4" x1="69.41" y1="84.88" x2="82.14" y2="72.15" xlink:href="#New_Gradient_Swatch_4"/><linearGradient id="New_Gradient_Swatch_4-5" x1="28.91" y1="71.17" x2="52.42" y2="47.67" xlink:href="#New_Gradient_Swatch_4"/><linearGradient id="New_Gradient_Swatch_4-6" x1="75.93" y1="71.17" x2="99.44" y2="47.67" xlink:href="#New_Gradient_Swatch_4"/><linearGradient id="New_Gradient_Swatch_4-7" x1="42.68" y1="57.66" x2="52.55" y2="47.79" xlink:href="#New_Gradient_Swatch_4"/><linearGradient id="New_Gradient_Swatch_4-8" x1="9.95" y1="57.66" x2="19.82" y2="47.79" gradientTransform="matrix(-1, 0, 0, 1, 95.62, 0)" xlink:href="#New_Gradient_Swatch_4"/><linearGradient id="New_Gradient_Swatch_4-9" x1="56.82" y1="66.78" x2="71.53" y2="52.06" xlink:href="#New_Gradient_Swatch_4"/></defs><title>gift</title><g id="Layer_2" data-name="Layer 2"><g id="Layer_3" data-name="Layer 3"><circle class="cls-1" cx="63.59" cy="63.59" r="63.59"/><path class="cls-2" d="M120.26,92.42C115.07,74.83,109.73,58,104.13,51.83c2.58-6.44.89-15.33.59-16.77a52,52,0,0,0,2-17.71c-.37-6-2-13.67-8-16.54A6.91,6.91,0,0,0,93,.46c-5.61,2.18-9.27,11.43-12,18.18-.81,2-1.51,3.8-2.09,4.91-2.67,5.05-4.94,4.52-4.94,4.52a.67.67,0,0,0-.8.95,3.93,3.93,0,0,1,.15,3.25c-1.38,0-2.86.1-4.41.17a101.41,101.41,0,0,1-16-.19l-.6-.56-.2-.18C49.83,29.36,45,24.87,43.2,20.24,41,14.56,35.27,5.45,29.47,3a6.51,6.51,0,0,0-5.25-.15c-7.25,3.08-6,20.47-6,21.21a.13.13,0,0,0,0,.06c.38,2.38.64,6.12,0,7a.68.68,0,0,0,.08.88,10.21,10.21,0,0,1,2.41,5.08,22.79,22.79,0,0,1,.11,3.68c-.06,4.37-.15,10.9,3.51,14.46-1.07,2.24-1.64,3.71-1.66,3.77a.72.72,0,0,0,0,.41c.06.23,1.38,5.53-3.23,6.89a.67.67,0,0,0,.19,1.31c1,0,3.91.29,4.93,1.58a1.92,1.92,0,0,1,.29,1.71c-2,8.47-2.68,14.61-2,18.23a.67.67,0,0,0,1.2.26c.42-.59,1.51-1.75,2.24-1.61.49.1.94.89,1.24,2.19a11.28,11.28,0,0,1,.23,3.56c-.36,4.26-.69,15.81,4.89,25.67a63.6,63.6,0,0,0,87.56-26.75Z"/><path class="cls-3" d="M55.17,126.6a63.33,63.33,0,0,0,18-.15V.72A64.29,64.29,0,0,0,63.59,0a64.94,64.94,0,0,0-8.42.57Z"/><path class="cls-4" d="M0,63.59A64.79,64.79,0,0,0,.57,72h126a63.33,63.33,0,0,0-.15-18H.72A64.53,64.53,0,0,0,0,63.59Z"/><polygon class="cls-5" points="59.99 56.24 28.18 88.06 40.9 88.06 40.9 100.79 68.72 63.97 59.99 56.24"/><polygon class="cls-6" points="66.23 56.24 98.05 88.06 85.32 88.06 85.32 100.79 59.48 65 66.23 56.24"/><path class="cls-7" d="M36.57,45.62l27.6,13.8-27.6,13.8A5.81,5.81,0,0,1,28.17,68V50.81A5.81,5.81,0,0,1,36.57,45.62Z"/><path class="cls-8" d="M91.77,45.62l-27.6,13.8,27.6,13.8a5.8,5.8,0,0,0,8.4-5.19V50.81A5.8,5.8,0,0,0,91.77,45.62Z"/><path class="cls-9" d="M31.54,45.54c-.51,1,.82,2.54,7.48,4.88,14.51,5.1,25.15,9,25.15,9l-27.6-13.8A5.74,5.74,0,0,0,31.54,45.54Z"/><path class="cls-10" d="M96.81,45.54c.51,1-.82,2.54-7.48,4.88-14.51,5.1-25.16,9-25.16,9l27.6-13.8A5.76,5.76,0,0,1,96.81,45.54Z"/><rect class="cls-11" x="55.17" y="50.42" width="18" height="18" rx="5.61"/></g></g></svg>