<?xml version="1.0" encoding="UTF-8"?>
<svg width="20px" height="20px" viewBox="0 0 20 20" version="1.1" xmlns="http://www.w3.org/2000/svg" xmlns:xlink="http://www.w3.org/1999/xlink">
    <!-- Generator: Sketch 56.3 (81716) - https://sketch.com -->
    <title>icon-gift</title>
    <desc>Created with Sketch.</desc>
    <g id="Page-1" stroke="none" stroke-width="1" fill="none" fill-rule="evenodd" stroke-linecap="round" stroke-linejoin="round">
        <g id="manage" transform="translate(-1296.000000, -649.000000)" stroke="#FF585D">
            <g id="icon-gift" transform="translate(1297.000000, 650.000000)">
                <g id="Group-9">
                    <polygon id="Stroke-1" stroke-width="2" points="0 18 18 18 18 7 0 7"></polygon>
                    <polygon id="Stroke-3" stroke-width="2" points="0 7 18 7 18 4 0 4"></polygon>
                    <polygon id="Stroke-4" stroke-width="2" points="7.5 18 10.5 18 10.5 4 7.5 4"></polygon>
                    <path d="M9,4 L5.414,0.414 C5.149,0.149 4.78933333,0 4.414,0 C3.633,0 3,0.633 3,1.414 L3,2.586 C3,3.367 3.633,4 4.414,4 L13.586,4 C14.367,4 15,3.367 15,2.586 L15,1.414 C15,0.633 14.367,0 13.586,0 C13.2106667,0 12.851,0.149 12.586,0.414 L9,4 Z" id="Stroke-5" stroke-width="2"></path>
                </g>
            </g>
        </g>
    </g>
</svg>