<svg xmlns="http://www.w3.org/2000/svg" xmlns:xlink="http://www.w3.org/1999/xlink" viewBox="0 0 648 226.27"><defs><style>.cls-1{fill:none;}.cls-2{fill:#24272a;}.cls-3{fill:#fbb040;}.cls-4{clip-path:url(#clip-path);}.cls-5{fill:#fff;}.cls-6{fill:#a97c50;}.cls-7{fill:#231f20;opacity:0.1;}.cls-8{fill:url(#radial-gradient);}.cls-9{fill:url(#linear-gradient);}.cls-10,.cls-11{opacity:0.2;}.cls-10{fill:url(#linear-gradient-2);}.cls-11{fill:url(#linear-gradient-3);}.cls-12{fill:url(#New_Gradient_Swatch_1);}.cls-13,.cls-14{opacity:0.4;}.cls-13{fill:url(#New_Gradient_Swatch_1-2);}.cls-14{fill:url(#New_Gradient_Swatch_1-3);}</style><clipPath id="clip-path"><path class="cls-1" d="M248.58,85.3V58.47H153.2V85.3a63.59,63.59,0,1,0,95.38,0Z"/></clipPath><radialGradient id="radial-gradient" cx="-2175.17" cy="136.88" fy="128.15721072296031" r="44.16" gradientTransform="translate(820.76 103.36) scale(0.29 0.43)" gradientUnits="userSpaceOnUse"><stop offset="0" stop-color="#c8667b"/><stop offset="0.58" stop-color="#ee757b"/></radialGradient><linearGradient id="linear-gradient" x1="193.68" y1="153.19" x2="193.68" y2="136.12" gradientUnits="userSpaceOnUse"><stop offset="0" stop-color="#e6e6e6"/><stop offset="1" stop-color="#fff"/></linearGradient><linearGradient id="linear-gradient-2" x1="208.95" y1="131.63" x2="208.95" y2="115.99" gradientUnits="userSpaceOnUse"><stop offset="0" stop-color="#231f20"/><stop offset="1" stop-color="#231f20" stop-opacity="0"/></linearGradient><linearGradient id="linear-gradient-3" x1="180.78" y1="131.63" x2="180.78" y2="115.99" xlink:href="#linear-gradient-2"/><linearGradient id="New_Gradient_Swatch_1" x1="186.52" y1="140.18" x2="196.87" y2="140.18" gradientUnits="userSpaceOnUse"><stop offset="0" stop-color="#fff"/><stop offset="1" stop-color="#fff" stop-opacity="0"/></linearGradient><linearGradient id="New_Gradient_Swatch_1-2" x1="153.3" y1="104.33" x2="176.23" y2="81.4" xlink:href="#New_Gradient_Swatch_1"/><linearGradient id="New_Gradient_Swatch_1-3" x1="221.18" y1="101.89" x2="244.74" y2="78.33" xlink:href="#New_Gradient_Swatch_1"/></defs><title>logo</title><g id="Layer_2" data-name="Layer 2"><g id="Layer_3" data-name="Layer 3"><path class="cls-2" d="M155.83,23.69A23.21,23.21,0,0,1,179.39,0c8.49,0,15.82,4.12,19.63,10l-4.55,3.81A18.43,18.43,0,0,0,179.52,6c-9.6,0-17.35,7.44-17.35,17.78,0,10.15,7.5,17.29,17.29,17.29a19.06,19.06,0,0,0,15.25-7.69l4.43,3.75a24.5,24.5,0,0,1-19.93,9.84C166.41,46.94,155.83,37.59,155.83,23.69Z"/><path class="cls-2" d="M231.2,27.81h-6.28V46.27h-6.15V.8h15.44c9.66,0,14.27,6.83,14.27,13.53a13.08,13.08,0,0,1-10.58,13l12.68,19H243ZM224.92,22H233c6.65,0,9.17-3.88,9.17-7.76,0-4.06-2.65-7.63-7.94-7.63h-9.35Z"/><path class="cls-2" d="M285.83,29.9V46.27h-6.15V29.9L264.3.8h6.83l11.62,23L294.57.8h6.83Z"/><path class="cls-2" d="M350.37,14.83c0,7.13-4.8,14-15.26,14h-8.49V46.27h-6.15V.8h15.19C345.88.8,350.37,7.88,350.37,14.83Zm-6.15-.13c0-4.12-2.65-8.12-8.19-8.12h-9.41V23.13h8.61C341.57,23.13,344.22,18.83,344.22,14.7Z"/><path class="cls-2" d="M365.32,6.77V.8h33.1v6H384.94v39.5h-6.15V6.77Z"/><path class="cls-2" d="M412.2,23.81A23.54,23.54,0,1,1,435.52,47,22.89,22.89,0,0,1,412.2,23.81Zm40.67-.19C452.87,13.54,445.24,6,435.7,6s-17.1,7.63-17.1,17.59S426,41,435.7,41A17,17,0,0,0,452.87,23.62Z"/><path class="cls-2" d="M0,108C0,63.24,33.74,32.43,74.75,32.43c24.92,0,46.2,10.08,59.57,25a4.11,4.11,0,0,1,0,5.53L114.1,84.85a4.08,4.08,0,0,1-5.79.21c-8.37-7.8-18.73-13.58-30.82-13.58-19.62,0-35.11,15.3-35.11,36.09,0,20.41,15.3,35.71,34.92,35.71,12,0,23.2-5.72,31.76-14.29a4.09,4.09,0,0,1,5.76-.07L136,149.51a4.1,4.1,0,0,1,.28,5.6c-12.87,15.09-35.24,27-61.75,27C32.57,182.12,0,152.3,0,108Z"/><path class="cls-2" d="M281,70.89h33v13c7.26-11,17.86-15.9,28.45-15.9a36.05,36.05,0,0,1,11,2,4,4,0,0,1,2.68,4.19l-2.45,28.62a4.07,4.07,0,0,1-5,3.64A44.06,44.06,0,0,0,338.12,105c-12.94,0-22.75,7.26-22.75,30.41v40.44a4.11,4.11,0,0,1-4.1,4.1H281a4.1,4.1,0,0,1-4.09-4.1V75A4.09,4.09,0,0,1,281,70.89Z"/><ellipse class="cls-3" cx="517.54" cy="33.88" rx="21.58" ry="21.38"/><path class="cls-2" d="M473.23,70.89a4.1,4.1,0,0,1,4.1,4.09v94.59c0,35.51-28.06,56.7-62.78,56.7a92.59,92.59,0,0,1-49.61-14.61,4.12,4.12,0,0,1-1.45-5.22l10.06-20.84a4.09,4.09,0,0,1,5.76-1.75c9.25,5.38,20.76,10.05,33.47,10.05,19.62,0,28.06-10.4,28.06-22.37v-.39c-6.67,5.49-15.89,9-28.45,9-33.15,0-53.95-23.15-53.95-55.52,0-34.53,24.33-56.5,55.52-56.5,12.36,0,21.78,4.12,29,10.2V75a4.09,4.09,0,0,1,4.09-4.09ZM440.84,125c0-12.36-9.22-21.58-21.78-21.58-12.36,0-21.78,9-21.78,21.58,0,12.76,9.42,22.17,21.78,22.17C431.62,147.2,440.84,137.59,440.84,125Z"/><path class="cls-2" d="M498.31,175.87V75a4.1,4.1,0,0,1,4.1-4.09h30.46A4.09,4.09,0,0,1,537,75V175.87a4.1,4.1,0,0,1-4.09,4.1H502.41A4.11,4.11,0,0,1,498.31,175.87Z"/><path class="cls-2" d="M551,162.31l12-19.72a4.08,4.08,0,0,1,5.7-1.32c8.62,5.46,19.08,10.45,30.44,10.45,4.9,0,9.81-1.18,9.81-5.11,0-1.17-.59-2.55-4.91-4.12-5.1-1.76-20.79-6.27-27.07-9-13.14-5.69-21.38-14.91-21.38-30.41,0-21.19,18.63-35.51,47.28-35.51,13.55,0,26,2.83,38.86,11.26a4.13,4.13,0,0,1,1.29,5.6l-11.62,19a4.1,4.1,0,0,1-5.4,1.48c-9.36-4.88-18.09-6.76-23.52-6.76-4.71,0-8.64,1.57-8.64,4.51s2.36,4.9,10.2,6.67a113.24,113.24,0,0,1,25.51,8.83C643.09,125.23,648,133.67,648,146c0,21.38-17.85,37.07-48.46,37.07a79,79,0,0,1-47.4-15.32A4.13,4.13,0,0,1,551,162.31Z"/><circle class="cls-3" cx="200.89" cy="127.36" r="63.59"/><g class="cls-4"><path class="cls-5" d="M271.67,198.72c-8.63-11.5-19.65-71.38-31-83,3-6.77.69-16.95.69-16.95,2.49-7.2,4.69-28.62-5.58-33.61s-15.85,16.73-18.87,22.45-5.74,4.85-5.74,4.85a4.68,4.68,0,0,1,0,4.22c-5.56.08-12.7.9-21.2,0-2.14-2-8-7.07-10.08-12.4-2.68-6.9-11.19-20-18.09-17s-5.58,20.55-5.58,20.55,1,6-.1,7.48a10.8,10.8,0,0,1,2.6,5.43c.64,3.19-1.4,13.69,3.78,18.12-1.2,2.5-1.85,4.17-1.85,4.17s1.59,6.14-3.69,7.7c0,0,6.85,0,5.87,4.11s-2.94,13-2,18c0,0,3.37-4.77,4.68.81a12,12,0,0,1,.25,3.77c-.37,4.27-1.34,26.24,14.43,35.47h0s22.37,16.93,36.16,30Z"/><path class="cls-6" d="M240.65,115.74c3-6.77.69-16.95.69-16.95,2.49-7.2,4.69-28.62-5.58-33.61s-15.85,16.73-18.87,22.45-5.74,4.85-5.74,4.85a4.68,4.68,0,0,1,0,4.22c-5.56.08-12.7.9-21.2,0-2.14-2-8-7.07-10.08-12.4-2.68-6.9-11.19-20-18.09-17s-5.58,20.55-5.58,20.55,1,6-.1,7.48a10.8,10.8,0,0,1,2.6,5.43c.64,3.19-1.4,13.69,3.78,18.12-1.2,2.5-1.85,4.17-1.85,4.17s1.59,6.14-3.69,7.7c0,0,6.85,0,5.87,4.11s-2.94,13-2,18c0,0,3.37-4.77,4.68.81a10.35,10.35,0,0,1,.21,1.24,23.11,23.11,0,0,0,14.13-9.43c6.52-9.69,40.47-3.87,40.47-3.87s-.78,9.43,15.26,11.25,7.81-22.45,7.81-22.45-2.41-7.73-1.82-13.56Z"/><path class="cls-7" d="M221.67,144.28s-10.62,28.84-22.58,26.25c-6.15-1.33-11.44-13.95-11.44-13.95Z"/><path class="cls-5" d="M224,139.15c.88-7.68-5.87-9-11.47-5.14s-15.83-.88-15.63-16.16c.14-11.39,3.81-18.12,5.68-20.82-2.64.09-5.48.12-8.53,0-4.88,9.77-3.07,21.93-5,29.68-1.37,5.55-6.22,7-9.3,7.29a5.82,5.82,0,0,0-4.3,2.59l-.13.19a5.8,5.8,0,0,0,.24,6.7l7.91,12.81a32.19,32.19,0,0,0,7.67,8.53h0a13.7,13.7,0,0,0,18.42-1.51C216.61,155.67,223.41,144,224,139.15Z"/><path class="cls-7" d="M204.73,159.56s-.29,5.16,1.56,6.63l-.37,4.89a7.57,7.57,0,0,1-7.56,7.56h0a7.57,7.57,0,0,1-7.56-7.56V161Z"/><path class="cls-2" d="M182,149.66s2.19,7.44,8.63,9.69,15.74,3.83,23.47-8.9,5.06-13.87.49-8.51-10,11.65-18.4,10.08S182,149.66,182,149.66Z"/><path class="cls-8" d="M206.81,149a28.92,28.92,0,0,0-2.43,10.28c-.37,6.17-2.23,16.64-12.21,16.64s-9.12-13.88-7-19.85,4.62-7.75,4.62-7.75Z"/><path class="cls-2" d="M206.81,149a25.86,25.86,0,0,0-1.31,4,32.19,32.19,0,0,0-.74,4.13c-.16,1.38-.16,2.79-.31,4.2a31.47,31.47,0,0,1-.66,4.19,21.2,21.2,0,0,1-1.36,4.05,13.13,13.13,0,0,1-2.38,3.59,10.68,10.68,0,0,1-1.67,1.4,10.87,10.87,0,0,1-1.94,1,12.25,12.25,0,0,1-4.27.76,8.48,8.48,0,0,1-4.25-1.05,7.59,7.59,0,0,1-1.74-1.4,9.85,9.85,0,0,1-1.26-1.82,13.6,13.6,0,0,1-1.27-4.14,22,22,0,0,1-.22-4.28,28.66,28.66,0,0,1,.48-4.24,22.43,22.43,0,0,1,1.17-4.11,26.19,26.19,0,0,1,1.85-3.85,17.83,17.83,0,0,1,1.21-1.77,9,9,0,0,1,1.51-1.59l.08-.06h.1c2.87.15,5.75.29,8.58.48Zm0,0-8.59-.18c-2.83,0-5.62-.13-8.41-.2l.18-.05a8.07,8.07,0,0,0-1.34,1.49,16.49,16.49,0,0,0-1.12,1.73,27.32,27.32,0,0,0-1.73,3.77,21.19,21.19,0,0,0-1.11,4,27.15,27.15,0,0,0-.43,4.13,20.88,20.88,0,0,0,.24,4.11,13.13,13.13,0,0,0,1.21,3.87,8.48,8.48,0,0,0,1.12,1.64,6.76,6.76,0,0,0,1.52,1.25,7.61,7.61,0,0,0,3.82,1,11.49,11.49,0,0,0,4-.67,10.09,10.09,0,0,0,1.79-.92,10.61,10.61,0,0,0,1.55-1.29,16,16,0,0,0,3.72-7.25,33.39,33.39,0,0,0,.75-4.11c.17-1.37.22-2.79.44-4.19a32.71,32.71,0,0,1,.9-4.13A23.16,23.16,0,0,1,206.81,149Z"/><path class="cls-7" d="M185.38,155.55c3.34,1.87,9.25,3.12,16,3.12,1,0,2.06,0,3.06-.09a28.88,28.88,0,0,1,2.38-9.61l-17-.68S187.48,150,185.38,155.55Z"/><path class="cls-9" d="M199.86,136.12a14.24,14.24,0,0,0-2.64.25,21,21,0,0,1-8.47,0,11.28,11.28,0,0,0-2.35-.25c-5.41,0-9.79,3.82-9.79,8.53s4.38,8.54,9.79,8.54a10.82,10.82,0,0,0,5.15-1.28,2.71,2.71,0,0,1,2.51,0,13.1,13.1,0,0,0,5.8,1.32c6,0,10.88-3.82,10.88-8.54S205.87,136.12,199.86,136.12Z"/><ellipse class="cls-10" cx="208.95" cy="123.81" rx="6.87" ry="7.82"/><circle class="cls-2" cx="209.06" cy="122.98" r="5.74"/><circle class="cls-5" cx="212.11" cy="120.38" r="1.82"/><ellipse class="cls-11" cx="180.78" cy="123.81" rx="6.87" ry="7.82"/><circle class="cls-2" cx="180.89" cy="122.98" r="5.74"/><circle class="cls-5" cx="183.94" cy="120.38" r="1.82"/><path class="cls-2" d="M185.19,139.38c1.7-.8,4.72-1.62,9.64-1.1a3.8,3.8,0,0,1,3.41,3.56c.2,3.41-.69,8.41-7.48,8.61-7.55.21-8-5.14-7.72-8A3.8,3.8,0,0,1,185.19,139.38Z"/><ellipse class="cls-12" cx="191.69" cy="140.18" rx="5.17" ry="1.32"/><path class="cls-2" d="M216.38,223.5a.66.66,0,0,1-.46-.19c-13.42-12.75-35.26-29.34-36.08-30-15.67-9.9-15.23-30.11-14.72-36.07a11.28,11.28,0,0,0-.23-3.56c-.3-1.3-.76-2.09-1.25-2.19-.72-.14-1.82,1-2.23,1.61a.67.67,0,0,1-.69.26.68.68,0,0,1-.52-.52c-.71-3.62,0-9.76,2-18.23a1.92,1.92,0,0,0-.3-1.71c-1-1.29-3.9-1.58-4.92-1.58a.67.67,0,0,1-.67-.57.69.69,0,0,1,.48-.74c4.61-1.36,3.29-6.66,3.23-6.89a.64.64,0,0,1,0-.41c0-.06.6-1.53,1.66-3.77-3.66-3.56-3.57-10.09-3.5-14.46a21.45,21.45,0,0,0-.12-3.68,10.25,10.25,0,0,0-2.4-5.08.67.67,0,0,1-.08-.88c.63-.86.37-4.6,0-7v-.06c-.06-.74-1.28-18.13,6-21.21a6.51,6.51,0,0,1,5.25.15c5.79,2.45,11.51,11.56,13.73,17.24,1.79,4.63,6.63,9.12,9,11.27l.19.18.61.56a101.29,101.29,0,0,0,16,.19c1.56-.07,3-.14,4.42-.17a3.93,3.93,0,0,0-.15-3.25.66.66,0,0,1,.79-1s2.28.53,4.94-4.52c.59-1.11,1.29-2.87,2.09-4.91,2.68-6.75,6.35-16,12-18.18a6.91,6.91,0,0,1,5.71.35c5.91,2.87,7.59,10.57,7.95,16.54a51.78,51.78,0,0,1-2,17.71c.3,1.44,2,10.33-.6,16.77,6.28,6.86,12.25,27.28,18,47,4.61,15.75,9,30.63,12.75,35.69a.62.62,0,0,1,.11.57.65.65,0,0,1-.38.44l-55.29,24.11A.58.58,0,0,1,216.38,223.5Zm-35.81-31.27a2.18,2.18,0,0,1,.31.22l.73.56,2.73,2.1c2.11,1.63,5.42,4.22,9.21,7.26,6.58,5.28,15.87,12.95,23,19.67l54.13-23.61c-3.81-5.78-8-20.2-12.48-35.43-5.55-19-11.84-40.5-18-46.79a.66.66,0,0,1-.14-.73c2.84-6.49.68-16.45.65-16.55a.73.73,0,0,1,0-.36c2.48-7.13,4.61-28-5.23-32.79a5.57,5.57,0,0,0-4.65-.3c-5.06,2-8.75,11.27-11.19,17.43-.82,2.07-1.53,3.87-2.15,5-2.09,4-4.1,5-5.34,5.2a5.57,5.57,0,0,1-.36,3.82.68.68,0,0,1-.61.4c-1.49,0-3.1.1-4.82.18a101.17,101.17,0,0,1-16.46-.22.74.74,0,0,1-.39-.18c-.21-.21-.47-.44-.76-.71l-.19-.18c-2.4-2.22-7.38-6.85-9.29-11.76-2.07-5.31-7.63-14.23-13-16.49a5.22,5.22,0,0,0-4.21-.16c-6.26,2.66-5.22,19.08-5.17,19.85.16,1,.81,5.47,0,7.46a12.15,12.15,0,0,1,2.45,5.4,21.87,21.87,0,0,1,.13,4c-.05,4.27-.15,10.72,3.43,13.77a.67.67,0,0,1,.17.8c-.95,2-1.56,3.43-1.76,3.93.44,2,.38,5.31-2.07,7.23a6.19,6.19,0,0,1,3.65,1.84,3.18,3.18,0,0,1,.55,2.85c-1.73,7.26-2.45,12.72-2.14,16.27a3.14,3.14,0,0,1,2.57-1c1.09.21,1.84,1.25,2.29,3.19a13.05,13.05,0,0,1,.27,4c-.5,5.77-.93,25.35,14.12,34.84Z"/><path class="cls-13" d="M164.33,115.37s2.67-16.93,21-17.9c0,0-5.1-2.25-8.77-9.1-3.21-6-6.6-16.11-12.65-17.82a3,3,0,0,0-3.61,2,29.66,29.66,0,0,0-.13,16.5c2.94,11.25,2.26,17.12,2.26,17.12S162.38,113,164.33,115.37Z"/><path class="cls-14" d="M216.76,97.47a25.69,25.69,0,0,0,6.38-10.57c2.05-6.65,7.34-21.14,11.84-18.2s6.85,17.9,3.23,27.88c0,0,.88,10-1.86,12.33C236.35,108.91,224.86,97.47,216.76,97.47Z"/></g></g></g></svg>